<svg id="Layer_1" enable-background="new 0 0 490.667 490.667" viewBox="0 0 490.667 490.667" xmlns="http://www.w3.org/2000/svg"><g><g><g><path d="m187.733 130.133c-4.267-4.267-10.667-2.133-14.934 2.133l-42.667 64c-2.133 4.267-2.133 8.533 0 12.8l42.667 64c2.133 2.133 6.4 4.267 8.533 4.267s4.267 0 6.4-2.133c4.267-4.267 6.4-10.667 2.133-14.934l-38.4-57.6 38.4-57.6c4.268-6.399 2.135-12.799-2.132-14.933z"/><path d="m437.333 0h-384c-29.866 0-53.333 23.467-53.333 53.333v298.667c0 29.867 23.467 53.333 53.333 53.333h160v21.333h-74.667c-29.867 0-53.333 23.467-53.333 53.333 0 6.4 4.267 10.667 10.667 10.667h298.667c6.4 0 10.667-4.267 10.667-10.667 0-2.133 0-2.133 0-4.267-2.134-27.732-25.601-49.065-53.334-49.065h-74.667v-21.333h160c29.867 0 53.333-23.467 53.333-53.333v-298.668c.001-29.866-23.466-53.333-53.333-53.333zm32 320h-448v-266.667c0-17.066 14.934-32 32-32h384c17.066 0 32 14.934 32 32z"/><path d="m151.467 140.8c0-6.4-4.267-10.667-10.667-10.667-14.934 0-23.467-2.133-25.6-6.4-4.267-4.267-6.4-12.8-6.4-25.6 0-6.4-4.267-10.667-10.667-10.667s-10.667 4.267-10.667 10.667c0 14.934-2.133 23.467-6.4 25.6-4.267 4.267-12.8 6.4-25.6 6.4-6.4 0-10.667 4.267-10.667 10.667s4.267 10.667 10.667 10.667c14.934 0 23.467 2.133 25.6 6.4 4.267 4.267 6.4 12.8 6.4 25.6 0 6.4 4.267 10.667 10.667 10.667s10.667-4.267 10.667-10.667c0-14.934 2.133-23.467 6.4-25.6 4.267-4.267 12.8-6.4 25.6-6.4 6.4 0 10.667-4.266 10.667-10.667z"/><path d="m268.8 106.667c-6.4-2.133-10.667 2.133-12.8 8.533l-42.667 170.667c-2.133 6.4 2.133 10.667 8.533 12.8h2.134c4.267 0 8.533-4.267 10.667-8.533l42.667-170.667c2.133-6.4-2.134-10.667-8.534-12.8z"/><path d="m317.867 132.267c-4.267-4.267-10.667-6.4-14.934-2.133s-6.4 10.667-2.133 14.934l38.4 57.6-38.4 57.6c-4.267 4.267-2.133 10.667 2.133 14.934 2.133 2.133 4.267 2.133 6.4 2.133 4.267 0 6.4-2.133 8.533-4.267l42.667-64c2.133-4.267 2.133-8.533 0-12.8z"/><path d="m439.467 85.333c-14.934 0-23.467-2.133-25.6-6.4-4.267-4.267-6.4-12.8-6.4-25.6 0-6.4-4.267-10.667-10.667-10.667s-10.667 4.267-10.667 10.667c0 14.934-2.133 23.467-6.4 25.6-4.267 4.267-12.8 6.4-25.6 6.4-6.4 0-10.667 4.267-10.667 10.667s4.267 10.667 10.667 10.667c14.934 0 23.467 2.133 25.6 6.4 4.267 4.267 6.4 12.8 6.4 25.6 0 6.4 4.267 10.667 10.667 10.667s10.667-4.267 10.667-10.667c0-14.934 2.133-23.467 6.4-25.6 4.267-4.267 12.8-6.4 25.6-6.4 6.4 0 10.667-4.267 10.667-10.667-.001-6.4-4.267-10.667-10.667-10.667z"/></g></g></g><g/><g/><g/><g/><g/><g/><g/><g/><g/><g/><g/><g/><g/><g/><g/></svg>