<svg id="Layer_1" enable-background="new 0 0 512.555 512.555" viewBox="0 0 512.555 512.555" xmlns="http://www.w3.org/2000/svg"><g><g><g><path d="m437.333 362.944c-6.4 0-10.667 4.267-10.667 10.667v64c0 17.066-14.934 32-32 32h-341.333c-17.066 0-32-14.934-32-32v-309.333h405.333v74.667c0 6.4 4.267 10.667 10.667 10.667s10.667-4.267 10.667-10.667v-128c0-29.867-23.467-53.333-53.333-53.333h-341.334c-29.866-.001-53.333 23.466-53.333 53.332v362.667c0 29.867 23.467 53.333 53.333 53.333h341.333c29.867 0 53.333-23.467 53.333-53.333v-64c.001-6.4-4.266-10.667-10.666-10.667zm-298.666-298.666c6.4 0 10.667 4.267 10.667 10.667s-4.267 10.667-10.667 10.667-10.667-4.267-10.667-10.667c0-6.401 4.267-10.667 10.667-10.667zm-42.667 0c6.4 0 10.667 4.267 10.667 10.667s-4.267 10.667-10.667 10.667-10.667-4.267-10.667-10.667c0-6.401 4.267-10.667 10.667-10.667zm-42.667 0c6.4 0 10.667 4.267 10.667 10.667s-4.267 10.667-10.667 10.667-10.667-4.267-10.667-10.667c.001-6.401 4.268-10.667 10.667-10.667z"/><path d="m416 256.278c-6.4 0-10.667 4.267-10.667 10.667s4.267 10.667 10.667 10.667 10.667-4.267 10.667-10.667c0-6.401-4.267-10.667-10.667-10.667z"/><path d="m460.8 234.944c-6.4-2.133-10.667 2.133-12.8 8.533l-21.333 85.333c-2.133 6.4 2.133 10.667 8.533 12.8h2.133c4.267 0 8.533-4.267 10.667-8.533l21.333-85.333c2.134-6.399-2.133-10.666-8.533-12.8z"/><path d="m503.467 234.944c-6.4-2.133-10.667 2.133-12.8 8.533l-21.333 85.333c-2.133 6.4 2.133 10.667 8.533 12.8h2.133c4.267 0 8.533-4.267 10.667-8.533l21.333-85.333c2.133-6.399-2.133-10.666-8.533-12.8z"/><path d="m416 298.944c-6.4 0-10.667 4.267-10.667 10.667s4.267 10.667 10.667 10.667 10.667-4.267 10.667-10.667-4.267-10.667-10.667-10.667z"/><path d="m181.333 341.611c6.4 0 10.667-4.267 10.667-10.667v-74.667h10.667c6.4 0 10.667-4.267 10.667-10.667s-4.267-10.667-10.667-10.667h-42.667c-6.4 0-10.667 4.267-10.667 10.667s4.267 10.668 10.667 10.668h10.667v74.667c0 6.4 4.267 10.666 10.666 10.666z"/><path d="m330.667 234.944c-6.4 0-10.667 4.267-10.667 10.667v85.333c0 6.4 4.267 10.667 10.667 10.667s10.667-4.267 10.667-10.667v-32h10.666c17.066 0 32-14.934 32-32s-14.934-32-32-32zm32 32c0 6.4-4.267 10.667-10.667 10.667h-10.667v-21.333h10.667c6.4 0 10.667 4.266 10.667 10.666z"/><path d="m266.667 341.611c6.4 0 10.667-4.267 10.667-10.667v-74.667h10.666c6.4 0 10.667-4.267 10.667-10.667s-4.267-10.666-10.667-10.666h-42.667c-6.4 0-10.667 4.267-10.667 10.667s4.267 10.667 10.667 10.667h10.667v74.667c0 6.4 4.267 10.666 10.667 10.666z"/><path d="m117.333 341.611c6.4 0 10.667-4.267 10.667-10.667v-85.333c0-6.4-4.267-10.667-10.667-10.667s-10.667 4.267-10.667 10.667v32h-42.666v-32c0-6.4-4.267-10.667-10.667-10.667s-10.667 4.267-10.667 10.667v85.333c0 6.4 4.267 10.667 10.667 10.667s10.667-4.267 10.667-10.667v-32h42.667v32c0 6.401 4.267 10.667 10.666 10.667z"/></g></g></g><g/><g/><g/><g/><g/><g/><g/><g/><g/><g/><g/><g/><g/><g/><g/></svg>